<?xml version="1.0" encoding="utf-8"?>
<!-- Generator: Adobe Illustrator 22.0.1, SVG Export Plug-In . SVG Version: 6.00 Build 0)  -->
<svg version="1.1" id="Layer_1" xmlns="http://www.w3.org/2000/svg" xmlns:xlink="http://www.w3.org/1999/xlink" x="0px" y="0px"
	 viewBox="0 0 127.6 127.6" style="enable-background:new 0 0 127.6 127.6;" xml:space="preserve">
<style type="text/css">
	.st0{fill:#EA0029;}
	.st1{fill:#FFFFFF;}
</style>
<g>
	<g>
		<rect x="0" y="-0.1" class="st0" width="127.6" height="128"/>
		<g>
			<path class="st1" d="M52.8,52c-5,0-8.5,0.5-11.1,1.3c-3,1-4.7,2.6-6.3,4.7c-2.8,3.8-4.9,10.8-5.1,17.5h6.4c0,0-0.5-2.4,0-5.4h5
				h0.8l-0.8,3.4l-0.5,2.1h0.5h5.4L52.8,52L52.8,52z M45.4,58.3l-1.5,6.2l-2.2,0H38c0.9-2.4,2.1-4.1,3.7-5.2
				C42.8,58.7,44.1,58.3,45.4,58.3L45.4,58.3z"/>
			<path class="st1" d="M116.9,52c-5,0-8.5,0.5-11.1,1.3c-3,1-4.7,2.6-6.3,4.7c-2.8,3.8-4.9,10.8-5,17.5h6.4c0,0-0.5-2.4,0-5.4h5
				h0.8l-0.8,3.4l-0.5,2.1h0.5h5.4L116.9,52L116.9,52z M109.5,58.3l-1.5,6.2h-2.2l-3.7,0c0.8-2.4,2.1-4.1,3.7-5.2
				C106.9,58.7,108.2,58.3,109.5,58.3L109.5,58.3z"/>
			<polygon class="st1" points="16.4,52.1 22.3,52.1 20.1,61.4 25.5,61.4 27.7,52.1 33.6,52.1 28,75.5 22.1,75.5 24.1,67.1 
				18.7,67.1 16.7,75.5 10.8,75.5 16.4,52.1 			"/>
			<path class="st1" d="M55.5,52.1l-5.6,23.5l6,0L60,58.3c2.8,0,4,0,4.2,0.6c0.5,1.9-0.8,2.5-5,5.4l1.5,11.2h6.8l-2.3-9.2
				c3.5-2.6,4.9-4.5,5.4-7.9c0.7-4.5-3.6-6.4-6.4-6.4H55.5L55.5,52.1z"/>
			<polygon class="st1" points="71.4,52.1 72.3,75.5 79,75.5 91.3,52.1 84.5,52.1 77.6,67.3 78.2,52.1 71.4,52.1 			"/>
			<polygon class="st1" points="91.7,52.1 97.7,52.1 92,75.5 86.1,75.5 91.7,52.1 			"/>
		</g>
	</g>
	<g>
		<path class="st1" d="M38.9,97.1c-0.2,0-0.3-0.1-0.5-0.1c-0.2-0.1-0.5-0.1-0.9-0.1c-1.1,0-1.7,0.5-1.7,1.1c0,0.8,0.8,1,1.7,1.4
			c0.8,0.4,1.7,0.9,1.7,2.1c0,1.7-1.4,2.5-3.3,2.5c-0.6,0-1.2-0.1-1.7-0.3c-0.3-0.1-0.4-0.3-0.4-0.6c0-0.3,0.2-0.6,0.6-0.6
			c0.2,0,0.3,0.1,0.6,0.2c0.2,0.1,0.6,0.2,1.1,0.2c1.4,0,2-0.6,2-1.3c0-0.8-1-1.1-1.9-1.5c-0.8-0.4-1.5-0.9-1.5-2
			c0-1.6,1.4-2.4,3-2.4c0.6,0,1.1,0.1,1.5,0.3c0.3,0.1,0.4,0.3,0.4,0.5C39.5,96.8,39.3,97.1,38.9,97.1z"/>
		<path class="st1" d="M44.9,99l-0.7,3.4c-0.1,0.4,0,0.5,0.2,0.6c0.1,0.1,0.2,0.3,0.1,0.4c-0.1,0.3-0.4,0.5-0.7,0.5
			c-0.2,0-0.4-0.1-0.6-0.2c-0.1,0-0.1-0.1-0.1-0.2c-0.4,0.3-0.9,0.4-1.4,0.4c-1.1,0-1.7-0.7-1.7-1.7c0-0.2,0-0.6,0.1-0.9l0.1-0.8
			c0.1-0.9,0.4-1.5,0.9-1.9c0.4-0.3,0.8-0.5,1.5-0.5c0.4,0,0.9,0.1,1.2,0.4c0.1-0.2,0.3-0.4,0.6-0.4c0.3,0,0.6,0.2,0.6,0.5
			C45,98.8,45,98.9,44.9,99z M43.1,102.5c0-0.2,0.1-0.3,0.1-0.5l0.5-2.4c-0.2-0.2-0.6-0.4-0.9-0.4c-0.4,0-0.6,0.1-0.8,0.3
			c-0.3,0.2-0.4,0.6-0.5,1l-0.2,1.2c0,0.1,0,0.3,0,0.4c0,0.5,0.3,0.8,0.8,0.8C42.4,102.9,42.7,102.7,43.1,102.5z"/>
		<path class="st1" d="M50.9,99l-0.6,3.3c0,0.1,0,0.3,0,0.4c0,0.4,0.3,0.4,0.3,0.7c0,0.4-0.3,0.6-0.7,0.6c-0.2,0-0.3-0.1-0.4-0.2
			c-0.1-0.1-0.2-0.3-0.3-0.4c-0.5,0.3-1,0.6-1.6,0.6c-1.1,0-1.7-0.6-1.7-1.6c0-0.3,0-0.6,0.1-0.8l0.5-2.8c0.1-0.4,0.3-0.6,0.6-0.6
			c0.3,0,0.6,0.2,0.6,0.6c0,0.1,0,0.2,0,0.3l-0.5,2.4c0,0.2-0.1,0.4-0.1,0.6c0,0.5,0.3,0.8,0.7,0.8c0.4,0,0.8-0.2,1.2-0.4l0.7-3.7
			c0.1-0.4,0.3-0.6,0.6-0.6c0.3,0,0.6,0.2,0.6,0.6C50.9,98.8,50.9,98.9,50.9,99z"/>
		<path class="st1" d="M56.7,100.5l-0.6,2.8c-0.1,0.4-0.3,0.6-0.6,0.6c-0.3,0-0.6-0.2-0.6-0.6c0-0.1,0-0.2,0-0.3l0.5-2.5
			c0-0.2,0.1-0.4,0.1-0.5c0-0.5-0.2-0.8-0.7-0.8c-0.4,0-0.9,0.2-1.2,0.5l-0.7,3.6c-0.1,0.4-0.3,0.6-0.6,0.6c-0.3,0-0.6-0.2-0.6-0.6
			c0-0.1,0-0.2,0-0.3l0.6-3.2c0-0.1,0-0.3,0-0.4c0-0.4-0.3-0.4-0.3-0.7c0-0.4,0.3-0.6,0.7-0.6c0.1,0,0.3,0.1,0.4,0.2
			c0.1,0.1,0.2,0.2,0.2,0.4c0.5-0.3,1.1-0.6,1.7-0.6c1.1,0,1.5,0.7,1.5,1.6C56.7,100,56.7,100.3,56.7,100.5z"/>
		<path class="st1" d="M62.6,99l-0.7,3.4c-0.1,0.4,0,0.5,0.2,0.6c0.1,0.1,0.2,0.3,0.1,0.4c-0.1,0.3-0.4,0.5-0.7,0.5
			c-0.2,0-0.4-0.1-0.6-0.2c-0.1,0-0.1-0.1-0.1-0.2c-0.4,0.3-0.9,0.4-1.4,0.4c-1.1,0-1.7-0.7-1.7-1.7c0-0.2,0-0.6,0.1-0.9l0.1-0.8
			c0.1-0.9,0.4-1.5,0.9-1.9c0.4-0.3,0.8-0.5,1.5-0.5c0.4,0,0.9,0.1,1.2,0.4c0.1-0.2,0.3-0.4,0.6-0.4c0.3,0,0.6,0.2,0.6,0.5
			C62.6,98.8,62.6,98.9,62.6,99z M60.7,102.5c0-0.2,0.1-0.3,0.1-0.5l0.5-2.4c-0.2-0.2-0.6-0.4-0.9-0.4c-0.4,0-0.6,0.1-0.8,0.3
			c-0.3,0.2-0.4,0.6-0.5,1l-0.2,1.2c0,0.1,0,0.3,0,0.4c0,0.5,0.3,0.8,0.8,0.8C60,102.9,60.4,102.7,60.7,102.5z"/>
		<path class="st1" d="M72.8,100.8c-0.2,0.6-0.4,1.1-0.8,1.6l0.4,0.7c0.1,0.1,0.1,0.2,0.1,0.4c0,0.3-0.3,0.6-0.6,0.6
			c-0.2,0-0.4-0.1-0.5-0.3l-0.3-0.4c-0.6,0.5-1.3,0.7-2.1,0.7c-1.4,0-2.2-1-2.2-2.1c0-1.4,1.1-2.1,2-2.6c-0.4-0.6-0.5-1-0.5-1.5
			c0-1.2,0.9-2.1,2.1-2.1c0.5,0,0.9,0.1,1.2,0.3c0.4,0.2,0.5,0.5,0.6,0.7c0,0.3-0.2,0.6-0.5,0.6c-0.2,0-0.4-0.1-0.6-0.3
			c-0.2-0.1-0.4-0.2-0.7-0.2c-0.4,0-0.9,0.3-0.9,0.9c0,0.3,0.2,0.7,0.4,1.1l1.4,2.4c0.2-0.4,0.4-0.8,0.5-1.2
			c0.1-0.3,0.3-0.4,0.5-0.4c0.4,0,0.6,0.2,0.6,0.5C72.9,100.3,72.9,100.5,72.8,100.8z M69.3,100.1c-0.8,0.5-1.3,1-1.3,1.6
			c0,0.6,0.4,1.1,1.1,1.1c0.6,0,1.1-0.2,1.5-0.6L69.3,100.1z"/>
		<path class="st1" d="M82.2,97.1c-0.2,0-0.3-0.1-0.5-0.1c-0.2-0.1-0.5-0.1-0.9-0.1c-1.1,0-1.7,0.5-1.7,1.1c0,0.8,0.8,1,1.7,1.4
			c0.8,0.4,1.7,0.9,1.7,2.1c0,1.7-1.4,2.5-3.3,2.5c-0.6,0-1.2-0.1-1.7-0.3c-0.3-0.1-0.4-0.3-0.4-0.6c0-0.3,0.2-0.6,0.6-0.6
			c0.2,0,0.3,0.1,0.6,0.2c0.2,0.1,0.6,0.2,1.1,0.2c1.4,0,2-0.6,2-1.3c0-0.8-1-1.1-1.9-1.5c-0.8-0.4-1.5-0.9-1.5-2
			c0-1.6,1.4-2.4,3-2.4c0.6,0,1.1,0.1,1.5,0.3c0.3,0.1,0.4,0.3,0.4,0.5C82.7,96.8,82.5,97.1,82.2,97.1z"/>
		<path class="st1" d="M86.5,98.1c1.1,0,1.7,0.6,1.7,1.7c0,0.3-0.1,0.7-0.1,1l-0.2,0.8c-0.3,1.5-0.9,2.3-2.4,2.3
			c-0.4,0-0.8-0.1-1.1-0.3l-0.3,1.7c-0.1,0.4-0.3,0.6-0.6,0.6c-0.3,0-0.6-0.2-0.6-0.6c0-0.1,0-0.2,0.1-0.3l1-5.2c0-0.1,0-0.3,0-0.4
			c0-0.4-0.3-0.4-0.3-0.7c0-0.4,0.3-0.6,0.7-0.6c0.2,0,0.3,0.1,0.5,0.2c0.1,0.1,0.2,0.2,0.2,0.3C85.3,98.4,85.8,98.1,86.5,98.1z
			 M86.1,99.2c-0.4,0-0.8,0.2-1.1,0.5l-0.6,2.9c0.2,0.2,0.5,0.3,0.8,0.3c0.9,0,1.2-0.7,1.3-1.5l0.2-0.9c0.1-0.3,0.1-0.4,0.1-0.6
			C86.9,99.6,86.7,99.2,86.1,99.2z"/>
		<path class="st1" d="M93.9,99l-0.7,3.4c-0.1,0.4,0,0.5,0.2,0.6c0.1,0.1,0.2,0.3,0.1,0.4c-0.1,0.3-0.4,0.5-0.7,0.5
			c-0.2,0-0.4-0.1-0.6-0.2c-0.1,0-0.1-0.1-0.1-0.2c-0.4,0.3-0.9,0.4-1.4,0.4c-1.1,0-1.7-0.7-1.7-1.7c0-0.2,0-0.6,0.1-0.9l0.1-0.8
			c0.1-0.9,0.4-1.5,0.9-1.9c0.4-0.3,0.8-0.5,1.5-0.5c0.4,0,0.9,0.1,1.2,0.4c0.1-0.2,0.3-0.4,0.6-0.4c0.3,0,0.6,0.2,0.6,0.5
			C93.9,98.8,93.9,98.9,93.9,99z M92,102.5c0-0.2,0.1-0.3,0.1-0.5l0.5-2.4c-0.2-0.2-0.6-0.4-0.9-0.4c-0.4,0-0.6,0.1-0.8,0.3
			c-0.3,0.2-0.4,0.6-0.5,1l-0.2,1.2c0,0.1,0,0.3,0,0.4c0,0.5,0.3,0.8,0.8,0.8C91.4,102.9,91.7,102.7,92,102.5z"/>
	</g>
</g>
</svg>

